<mxfile host="app.diagrams.net" modified="2023-06-06T20:49:12.661Z" agent="Mozilla/5.0 (Windows NT 10.0; Win64; x64) AppleWebKit/537.36 (KHTML, like Gecko) Chrome/114.0.0.0 Safari/537.36" etag="zdRRp8ssLyf1QUw2Nsat" version="21.3.7" type="github">
  <diagram name="Page-1" id="FOZe5bLcBpYnKstwvZU1">
    <mxGraphModel dx="5400" dy="5748" grid="1" gridSize="10" guides="1" tooltips="1" connect="1" arrows="1" fold="1" page="0" pageScale="1" pageWidth="850" pageHeight="1100" math="0" shadow="0">
      <root>
        <mxCell id="0" />
        <mxCell id="1" parent="0" />
        <mxCell id="r--GAz5T_2ZrelLrVBZm-5" style="edgeStyle=none;curved=1;rounded=0;orthogonalLoop=1;jettySize=auto;html=1;exitX=0.5;exitY=1;exitDx=0;exitDy=0;entryX=0.5;entryY=0;entryDx=0;entryDy=0;fontSize=12;startSize=8;endSize=8;" edge="1" parent="1" source="r--GAz5T_2ZrelLrVBZm-2" target="r--GAz5T_2ZrelLrVBZm-4">
          <mxGeometry relative="1" as="geometry" />
        </mxCell>
        <mxCell id="r--GAz5T_2ZrelLrVBZm-12" style="edgeStyle=none;curved=1;rounded=0;orthogonalLoop=1;jettySize=auto;html=1;exitX=0;exitY=0.5;exitDx=0;exitDy=0;entryX=1;entryY=0.5;entryDx=0;entryDy=0;fontSize=12;startSize=8;endSize=8;" edge="1" parent="1" source="r--GAz5T_2ZrelLrVBZm-2" target="r--GAz5T_2ZrelLrVBZm-10">
          <mxGeometry relative="1" as="geometry" />
        </mxCell>
        <mxCell id="r--GAz5T_2ZrelLrVBZm-2" value="Login / Signup" style="rounded=0;whiteSpace=wrap;html=1;fontSize=16;" vertex="1" parent="1">
          <mxGeometry x="-490" y="-2790" width="120" height="60" as="geometry" />
        </mxCell>
        <mxCell id="r--GAz5T_2ZrelLrVBZm-3" value="AI Workflow diagram" style="text;html=1;strokeColor=none;fillColor=none;align=center;verticalAlign=middle;whiteSpace=wrap;rounded=0;fontSize=28;" vertex="1" parent="1">
          <mxGeometry x="-567.5" y="-2870" width="275" height="30" as="geometry" />
        </mxCell>
        <mxCell id="r--GAz5T_2ZrelLrVBZm-16" style="edgeStyle=none;curved=1;rounded=0;orthogonalLoop=1;jettySize=auto;html=1;exitX=0.5;exitY=1;exitDx=0;exitDy=0;entryX=0.5;entryY=0;entryDx=0;entryDy=0;fontSize=12;startSize=8;endSize=8;" edge="1" parent="1" source="r--GAz5T_2ZrelLrVBZm-4" target="r--GAz5T_2ZrelLrVBZm-15">
          <mxGeometry relative="1" as="geometry" />
        </mxCell>
        <mxCell id="r--GAz5T_2ZrelLrVBZm-18" style="edgeStyle=none;curved=1;rounded=0;orthogonalLoop=1;jettySize=auto;html=1;exitX=0.25;exitY=1;exitDx=0;exitDy=0;entryX=0.913;entryY=0.153;entryDx=0;entryDy=0;entryPerimeter=0;fontSize=12;startSize=8;endSize=8;" edge="1" parent="1" source="r--GAz5T_2ZrelLrVBZm-4" target="r--GAz5T_2ZrelLrVBZm-17">
          <mxGeometry relative="1" as="geometry" />
        </mxCell>
        <mxCell id="r--GAz5T_2ZrelLrVBZm-4" value="Home page" style="rounded=0;whiteSpace=wrap;html=1;fontSize=16;" vertex="1" parent="1">
          <mxGeometry x="-490" y="-2630" width="120" height="60" as="geometry" />
        </mxCell>
        <mxCell id="r--GAz5T_2ZrelLrVBZm-8" style="edgeStyle=none;curved=1;rounded=0;orthogonalLoop=1;jettySize=auto;html=1;exitX=0;exitY=0.5;exitDx=0;exitDy=0;entryX=1;entryY=0.5;entryDx=0;entryDy=0;fontSize=12;startSize=8;endSize=8;" edge="1" parent="1" source="r--GAz5T_2ZrelLrVBZm-6" target="r--GAz5T_2ZrelLrVBZm-4">
          <mxGeometry relative="1" as="geometry" />
        </mxCell>
        <mxCell id="r--GAz5T_2ZrelLrVBZm-6" value="&lt;ol style=&quot;font-size: 12px;&quot;&gt;&lt;li style=&quot;font-size: 12px;&quot;&gt;Profile picture on the top right corner&lt;/li&gt;&lt;li style=&quot;font-size: 12px;&quot;&gt;In the center page, the cancer type can be searched for and selected&amp;nbsp;&lt;/li&gt;&lt;li style=&quot;font-size: 12px;&quot;&gt;Below cancer type there is cancer stage&lt;/li&gt;&lt;li style=&quot;font-size: 12px;&quot;&gt;Below both is the selection for reset and Next&lt;/li&gt;&lt;li style=&quot;font-size: 12px;&quot;&gt;Center top is app name&lt;/li&gt;&lt;li style=&quot;font-size: 12px;&quot;&gt;Top right is the developer details and logo&amp;nbsp;&lt;/li&gt;&lt;li style=&quot;font-size: 12px;&quot;&gt;Shows past list of search history&lt;/li&gt;&lt;/ol&gt;" style="shape=process;whiteSpace=wrap;html=1;backgroundOutline=1;fontSize=12;align=left;" vertex="1" parent="1">
          <mxGeometry x="-300" y="-2718.75" width="260" height="237.5" as="geometry" />
        </mxCell>
        <mxCell id="r--GAz5T_2ZrelLrVBZm-7" value="Login" style="text;html=1;align=center;verticalAlign=middle;resizable=0;points=[];autosize=1;strokeColor=none;fillColor=none;fontSize=16;" vertex="1" parent="1">
          <mxGeometry x="-430" y="-2690" width="60" height="30" as="geometry" />
        </mxCell>
        <mxCell id="r--GAz5T_2ZrelLrVBZm-13" style="edgeStyle=none;curved=1;rounded=0;orthogonalLoop=1;jettySize=auto;html=1;exitX=0.5;exitY=1;exitDx=0;exitDy=0;entryX=0;entryY=0.5;entryDx=0;entryDy=0;fontSize=12;startSize=8;endSize=8;" edge="1" parent="1" source="r--GAz5T_2ZrelLrVBZm-10" target="r--GAz5T_2ZrelLrVBZm-4">
          <mxGeometry relative="1" as="geometry">
            <Array as="points">
              <mxPoint x="-710" y="-2570" />
            </Array>
          </mxGeometry>
        </mxCell>
        <mxCell id="r--GAz5T_2ZrelLrVBZm-10" value="&lt;font style=&quot;font-size: 12px;&quot;&gt;Basic details about the patients like -&amp;nbsp;&lt;br&gt;&lt;/font&gt;&lt;ol style=&quot;font-size: 12px;&quot;&gt;&lt;li style=&quot;text-align: left;&quot;&gt;&lt;font style=&quot;font-size: 12px;&quot;&gt;Name&lt;/font&gt;&lt;/li&gt;&lt;li style=&quot;text-align: left;&quot;&gt;&lt;font style=&quot;font-size: 12px;&quot;&gt;Age&lt;/font&gt;&lt;/li&gt;&lt;li style=&quot;text-align: left;&quot;&gt;&lt;font style=&quot;font-size: 12px;&quot;&gt;Phone number&lt;/font&gt;&lt;/li&gt;&lt;li style=&quot;text-align: left;&quot;&gt;&lt;font style=&quot;font-size: 12px;&quot;&gt;Email&lt;/font&gt;&lt;/li&gt;&lt;li style=&quot;text-align: left;&quot;&gt;&lt;font style=&quot;font-size: 12px;&quot;&gt;Password&lt;/font&gt;&lt;/li&gt;&lt;li style=&quot;text-align: left;&quot;&gt;&lt;font style=&quot;font-size: 12px;&quot;&gt;Confirm password&lt;/font&gt;&lt;/li&gt;&lt;/ol&gt;" style="shape=process;whiteSpace=wrap;html=1;backgroundOutline=1;fontSize=16;align=center;" vertex="1" parent="1">
          <mxGeometry x="-820" y="-2840" width="200" height="160" as="geometry" />
        </mxCell>
        <mxCell id="r--GAz5T_2ZrelLrVBZm-19" style="edgeStyle=none;curved=1;rounded=0;orthogonalLoop=1;jettySize=auto;html=1;exitX=0;exitY=0.5;exitDx=0;exitDy=0;entryX=0.913;entryY=0.773;entryDx=0;entryDy=0;entryPerimeter=0;fontSize=12;startSize=8;endSize=8;" edge="1" parent="1" source="r--GAz5T_2ZrelLrVBZm-15" target="r--GAz5T_2ZrelLrVBZm-17">
          <mxGeometry relative="1" as="geometry" />
        </mxCell>
        <mxCell id="r--GAz5T_2ZrelLrVBZm-15" value="Check the priorities of the user and rate them from 1-6" style="rounded=0;whiteSpace=wrap;html=1;fontSize=16;" vertex="1" parent="1">
          <mxGeometry x="-490" y="-2430" width="120" height="100" as="geometry" />
        </mxCell>
        <mxCell id="r--GAz5T_2ZrelLrVBZm-21" style="edgeStyle=none;curved=1;rounded=0;orthogonalLoop=1;jettySize=auto;html=1;exitX=0;exitY=0.5;exitDx=0;exitDy=0;entryX=1;entryY=0.5;entryDx=0;entryDy=0;fontSize=12;startSize=8;endSize=8;" edge="1" parent="1" source="r--GAz5T_2ZrelLrVBZm-17" target="r--GAz5T_2ZrelLrVBZm-20">
          <mxGeometry relative="1" as="geometry" />
        </mxCell>
        <mxCell id="r--GAz5T_2ZrelLrVBZm-17" value="AI Integration&amp;nbsp;" style="ellipse;whiteSpace=wrap;html=1;aspect=fixed;fontSize=16;" vertex="1" parent="1">
          <mxGeometry x="-680" y="-2510" width="100" height="100" as="geometry" />
        </mxCell>
        <mxCell id="r--GAz5T_2ZrelLrVBZm-20" value="Gives patient priority wise options of treatment, hospital, toxicity etc." style="rounded=0;whiteSpace=wrap;html=1;fontSize=16;" vertex="1" parent="1">
          <mxGeometry x="-930" y="-2515" width="150" height="110" as="geometry" />
        </mxCell>
        <mxCell id="r--GAz5T_2ZrelLrVBZm-23" style="edgeStyle=none;curved=1;rounded=0;orthogonalLoop=1;jettySize=auto;html=1;exitX=0.5;exitY=0;exitDx=0;exitDy=0;entryX=0.5;entryY=1;entryDx=0;entryDy=0;fontSize=12;startSize=8;endSize=8;" edge="1" parent="1" source="r--GAz5T_2ZrelLrVBZm-22" target="r--GAz5T_2ZrelLrVBZm-15">
          <mxGeometry relative="1" as="geometry" />
        </mxCell>
        <mxCell id="r--GAz5T_2ZrelLrVBZm-22" value="&lt;font style=&quot;font-size: 12px;&quot;&gt;Priorities need to be selected -&amp;nbsp;&lt;br&gt;&lt;/font&gt;&lt;ol style=&quot;font-size: 12px;&quot;&gt;&lt;li style=&quot;text-align: left;&quot;&gt;&lt;font style=&quot;font-size: 12px;&quot;&gt;best cure rate&lt;/font&gt;&lt;/li&gt;&lt;li style=&quot;text-align: left;&quot;&gt;&lt;font style=&quot;font-size: 12px;&quot;&gt;longest survival&lt;/font&gt;&lt;/li&gt;&lt;li style=&quot;text-align: left;&quot;&gt;&lt;font style=&quot;font-size: 12px;&quot;&gt;convenient hospital&lt;/font&gt;&lt;/li&gt;&lt;li style=&quot;text-align: left;&quot;&gt;&lt;font style=&quot;font-size: 12px;&quot;&gt;visit schedule&lt;/font&gt;&lt;/li&gt;&lt;li style=&quot;text-align: left;&quot;&gt;&lt;font style=&quot;font-size: 12px;&quot;&gt;least toxicity&lt;/font&gt;&lt;/li&gt;&lt;li style=&quot;text-align: left;&quot;&gt;&lt;font style=&quot;font-size: 12px;&quot;&gt;least cost&lt;/font&gt;&lt;br&gt;&lt;/li&gt;&lt;/ol&gt;" style="shape=process;whiteSpace=wrap;html=1;backgroundOutline=1;fontSize=16;" vertex="1" parent="1">
          <mxGeometry x="-550" y="-2240" width="240" height="130" as="geometry" />
        </mxCell>
      </root>
    </mxGraphModel>
  </diagram>
</mxfile>
